<svg width="30" height="30" viewBox="0 0 30 30" fill="none" xmlns="http://www.w3.org/2000/svg">
<path d="M21.1779 23.05C20.225 23.7132 19.0526 23.9825 17.9058 23.8015C16.759 23.6205 15.7266 23.0033 15.0242 22.0789C14.3218 21.1544 14.0039 19.9943 14.1369 18.841C14.2699 17.6876 14.8436 16.6303 15.7379 15.89C15.8384 15.8053 15.9212 15.7017 15.9816 15.585C16.042 15.4683 16.0788 15.3408 16.0899 15.2099C16.1011 15.0789 16.0863 14.9471 16.0465 14.8219C16.0067 14.6966 15.9426 14.5805 15.8579 14.48C15.7732 14.3796 15.6696 14.2968 15.5529 14.2364C15.4362 14.176 15.3087 14.1391 15.1778 14.128C15.0468 14.1169 14.915 14.1316 14.7898 14.1714C14.6645 14.2112 14.5484 14.2753 14.4479 14.36C13.1762 15.4348 12.3654 16.9566 12.1828 18.6117C12.0002 20.2667 12.4597 21.9287 13.4665 23.2549C14.4733 24.5811 15.9507 25.4703 17.5939 25.7392C19.2372 26.0081 20.9209 25.6361 22.2979 24.7C22.4174 24.6315 22.5215 24.5391 22.6036 24.4286C22.6857 24.318 22.7441 24.1917 22.7751 24.0575C22.8061 23.9233 22.8091 23.7841 22.7838 23.6488C22.7585 23.5134 22.7055 23.3847 22.6282 23.2707C22.5508 23.1568 22.4508 23.06 22.3343 22.9865C22.2178 22.9131 22.0874 22.8644 21.9512 22.8437C21.8151 22.823 21.6761 22.8306 21.543 22.8661C21.41 22.9016 21.2857 22.9642 21.1779 23.05Z" fill="#374151"/>
<path d="M16.2678 7.75C16.2678 8.47935 16.5576 9.17882 17.0733 9.69454C17.589 10.2103 18.2885 10.5 19.0178 10.5C19.7472 10.5 20.4466 10.2103 20.9624 9.69454C21.4781 9.17882 21.7678 8.47935 21.7678 7.75C21.7678 7.02065 21.4781 6.32118 20.9624 5.80546C20.4466 5.28973 19.7472 5 19.0178 5C18.2885 5 17.589 5.28973 17.0733 5.80546C16.5576 6.32118 16.2678 7.02065 16.2678 7.75Z" fill="#374151"/>
<path d="M25.088 18.53C24.7425 18.1008 24.3056 17.7542 23.8091 17.5154C23.3125 17.2767 22.7689 17.1518 22.218 17.15H20.588V14.78L23.028 15.3H23.298C23.6311 15.3152 23.9575 15.2029 24.2107 14.9858C24.4638 14.7687 24.6246 14.4632 24.6603 14.1316C24.696 13.8001 24.6039 13.4674 24.4028 13.2014C24.2017 12.9354 23.9067 12.7561 23.578 12.7C22.1043 12.1804 20.5788 11.8217 19.028 11.63C18.7526 11.6293 18.4825 11.7055 18.248 11.85C18.0081 11.9603 17.8113 12.1466 17.688 12.38C17.5309 12.6283 17.4477 12.9162 17.448 13.21V17.68C17.4479 18.369 17.7181 19.0304 18.2005 19.5222C18.683 20.0141 19.3392 20.2969 20.028 20.31H22.168C22.2461 20.3095 22.3234 20.3263 22.3943 20.3591C22.4651 20.392 22.5279 20.4401 22.578 20.5L24.048 22.34C24.3132 22.6676 24.6977 22.8763 25.1168 22.9204C25.536 22.9645 25.9555 22.8402 26.283 22.575C26.6105 22.3098 26.8193 21.9253 26.8634 21.5062C26.9075 21.087 26.7832 20.6676 26.518 20.34L25.088 18.53Z" fill="#374151"/>
<path fill-rule="evenodd" clip-rule="evenodd" d="M4.26883 7.95215C4.26883 8.73511 4.55857 9.486 5.07429 10.0396C5.59002 10.5933 6.28949 10.9043 7.01883 10.9043C7.74818 10.9043 8.44765 10.5933 8.96338 10.0396C9.4791 9.486 9.76883 8.73511 9.76883 7.95215C9.76883 7.16919 9.4791 6.4183 8.96338 5.86467C8.44765 5.31103 7.74818 5 7.01883 5C6.28949 5 5.59002 5.31103 5.07429 5.86467C4.55857 6.4183 4.26883 7.16919 4.26883 7.95215ZM5.4377 18.8428C5.41061 18.68 5.39674 18.5138 5.39676 18.3461V13.5475C5.39648 13.232 5.47971 12.923 5.63676 12.6565C5.76005 12.4058 5.95688 12.2059 6.19676 12.0875C6.43123 11.9324 6.70136 11.8506 6.97676 11.8513C8.52756 12.0571 10.0531 12.4422 11.5268 13C11.8555 13.0601 12.1505 13.2526 12.3516 13.5382C12.5527 13.8238 12.6448 14.1809 12.6091 14.5368C12.5734 14.8928 12.4126 15.2207 12.1594 15.4538C11.9063 15.6868 11.5799 15.8075 11.2468 15.7911H10.9768L8.53677 15.2329V17.7771L8.64488 18.4188C8.68638 18.5088 8.72096 18.595 8.74977 18.6773L11.1381 22.6578C11.6703 23.5449 10.6703 24.5573 9.77675 24.0361L7.64728 22.7939C7.33592 22.6123 6.9509 22.6123 6.63954 22.7939L4.51007 24.0361C3.61655 24.5573 2.6165 23.5449 3.14871 22.6578L5.4377 18.8428Z" fill="#374151"/>
</svg>
