<svg width="24" height="24" viewBox="0 0 24 24" fill="none" xmlns="http://www.w3.org/2000/svg">
<g clip-path="url(#clip0_180_1998)">
<path d="M10 16.4L9.91003 15.62C9.90574 15.5774 9.89061 15.5367 9.8661 15.5017C9.84159 15.4667 9.80851 15.4386 9.77003 15.42C9.73202 15.398 9.68891 15.3865 9.64503 15.3865C9.60114 15.3865 9.55803 15.398 9.52003 15.42C9.14674 15.6619 8.8385 15.9918 8.62232 16.3805C8.40613 16.7693 8.2886 17.2052 8.28003 17.65C8.28245 18.3249 8.54823 18.9722 9.02077 19.4541C9.49332 19.9359 10.1353 20.2143 10.81 20.23C11.4979 20.2203 12.1559 19.9475 12.6488 19.4676C13.1416 18.9878 13.432 18.3373 13.46 17.65C13.4647 17.6389 13.4671 17.627 13.4671 17.615C13.4671 17.6029 13.4647 17.591 13.46 17.58C13.4491 17.5747 13.4372 17.5719 13.425 17.5719C13.4129 17.5719 13.4009 17.5747 13.39 17.58L12.13 17.89C11.8913 17.945 11.6436 17.9493 11.403 17.9026C11.1625 17.8559 10.9344 17.7592 10.7336 17.6187C10.5328 17.4782 10.3638 17.2972 10.2374 17.0872C10.111 16.8773 10.0302 16.6432 10 16.4Z" fill="#374151"/>
<path d="M21.5 7.5C21.5 7.10218 21.342 6.72064 21.0607 6.43934C20.7794 6.15804 20.3978 6 20 6H4C3.60218 6 3.22064 6.15804 2.93934 6.43934C2.65804 6.72064 2.5 7.10218 2.5 7.5V22.5C2.5 22.8978 2.65804 23.2794 2.93934 23.5607C3.22064 23.842 3.60218 24 4 24H20C20.3978 24 20.7794 23.842 21.0607 23.5607C21.342 23.2794 21.5 22.8978 21.5 22.5V7.5ZM7.61 10.16C7.6067 9.73255 7.71714 9.31191 7.93002 8.94122C8.14289 8.57053 8.45053 8.26313 8.82138 8.05054C9.19224 7.83795 9.61296 7.72783 10.0404 7.73146C10.4679 7.7351 10.8867 7.85236 11.2538 8.07122C11.621 8.29008 11.9234 8.60266 12.1299 8.97691C12.3365 9.35117 12.4398 9.77363 12.4292 10.201C12.4186 10.6283 12.2946 11.0451 12.0698 11.4087C11.845 11.7723 11.5276 12.0696 11.15 12.27C11.1066 12.2948 11.0713 12.3315 11.0482 12.3759C11.0251 12.4202 11.0154 12.4702 11.02 12.52L11.09 13.06C11.0929 13.0954 11.1034 13.1297 11.1206 13.1608C11.1379 13.1918 11.1615 13.2188 11.19 13.24C11.2231 13.2546 11.2588 13.2621 11.295 13.2621C11.3312 13.2621 11.3669 13.2546 11.4 13.24L13.69 12.66C13.8835 12.6112 14.0885 12.6404 14.2607 12.7415C14.4328 12.8425 14.5583 13.0072 14.61 13.2C14.6339 13.2959 14.6386 13.3955 14.6239 13.4932C14.6091 13.5909 14.5752 13.6847 14.5241 13.7693C14.473 13.8539 14.4057 13.9275 14.3261 13.986C14.2464 14.0444 14.156 14.0866 14.06 14.11L11.51 14.76C11.4516 14.7743 11.4008 14.81 11.3675 14.86C11.3341 14.91 11.3208 14.9706 11.33 15.03L11.46 16.19C11.4707 16.2572 11.5064 16.318 11.56 16.36C11.586 16.3818 11.6165 16.3977 11.6494 16.4063C11.6822 16.415 11.7166 16.4162 11.75 16.41L15.57 15.41C15.7462 15.3678 15.9318 15.3899 16.0931 15.4724C16.2545 15.5549 16.3811 15.6924 16.45 15.86L17.59 18.64C17.6105 18.697 17.6518 18.7441 17.7056 18.7719C17.7593 18.7997 17.8217 18.8062 17.88 18.79L18.25 18.7C18.4369 18.6658 18.6298 18.7037 18.7898 18.8063C18.9498 18.9088 19.0649 19.0682 19.1118 19.2523C19.1588 19.4364 19.1342 19.6315 19.0429 19.7981C18.9516 19.9647 18.8004 20.0905 18.62 20.15L17.4 20.46C17.2237 20.5044 17.0373 20.4832 16.8754 20.4005C16.7135 20.3177 16.5872 20.1789 16.52 20.01L15.38 17.22C15.3597 17.1678 15.3212 17.1248 15.2714 17.099C15.2217 17.0732 15.1643 17.0665 15.11 17.08C15.0597 17.0912 15.0146 17.119 14.9819 17.1589C14.9493 17.1988 14.931 17.2485 14.93 17.3V17.61C14.9065 18.6968 14.4596 19.7315 13.6844 20.4937C12.9092 21.2558 11.8671 21.685 10.78 21.69C9.71018 21.6742 8.68984 21.2367 7.94081 20.4727C7.19178 19.7087 6.77461 18.6799 6.78 17.61C6.79094 16.7636 7.05617 15.94 7.54124 15.2463C8.0263 14.5526 8.70878 14.0208 9.5 13.72C9.55349 13.7 9.59854 13.6624 9.62765 13.6132C9.65676 13.5641 9.66817 13.5065 9.66 13.45L9.56 12.62C9.55459 12.5698 9.53469 12.5223 9.50273 12.4832C9.47076 12.4442 9.42812 12.4152 9.38 12.4C8.8848 12.2639 8.44602 11.9732 8.12762 11.5703C7.80923 11.1674 7.62787 10.6732 7.61 10.16Z" fill="#374151"/>
<path d="M4.99995 2.99996H5.99995V3.99996C5.99995 4.26518 6.10531 4.51953 6.29285 4.70707C6.48038 4.89461 6.73474 4.99996 6.99995 4.99996C7.26517 4.99996 7.51952 4.89461 7.70706 4.70707C7.8946 4.51953 7.99995 4.26518 7.99995 3.99996V2.99996H8.99995C9.09867 2.99947 9.19502 2.96977 9.27689 2.9146C9.35875 2.85944 9.42244 2.78127 9.45995 2.68996C9.5008 2.59983 9.51215 2.49911 9.4924 2.40215C9.47265 2.30519 9.4228 2.21693 9.34995 2.14996L7.34995 0.149962C7.30506 0.102131 7.25085 0.0640092 7.19065 0.037949C7.13045 0.0118887 7.06555 -0.0015564 6.99995 -0.0015564C6.93436 -0.0015564 6.86946 0.0118887 6.80926 0.037949C6.74906 0.0640092 6.69484 0.102131 6.64995 0.149962L4.64995 2.14996C4.57711 2.21693 4.52726 2.30519 4.50751 2.40215C4.48775 2.49911 4.49911 2.59983 4.53995 2.68996C4.57746 2.78127 4.64116 2.85944 4.72302 2.9146C4.80488 2.96977 4.90124 2.99947 4.99995 2.99996Z" fill="#374151"/>
<path d="M16.65 4.85C16.6948 4.89783 16.7491 4.93595 16.8093 4.96201C16.8695 4.98807 16.9344 5.00152 17 5.00152C17.0656 5.00152 17.1305 4.98807 17.1906 4.96201C17.2508 4.93595 17.3051 4.89783 17.35 4.85L19.35 2.85C19.4228 2.78303 19.4727 2.69478 19.4924 2.59781C19.5122 2.50085 19.5008 2.40013 19.46 2.31C19.4224 2.21869 19.3587 2.14053 19.2769 2.08536C19.195 2.03019 19.0987 2.00049 19 2H18V1C18 0.734784 17.8946 0.48043 17.7071 0.292893C17.5195 0.105357 17.2652 0 17 0C16.7347 0 16.4804 0.105357 16.2928 0.292893C16.1053 0.48043 16 0.734784 16 1V2H15C14.9012 2.00049 14.8049 2.03019 14.723 2.08536C14.6412 2.14053 14.5775 2.21869 14.54 2.31C14.4991 2.40013 14.4878 2.50085 14.5075 2.59781C14.5273 2.69478 14.5771 2.78303 14.65 2.85L16.65 4.85Z" fill="#374151"/>
</g>
<defs>
<clipPath id="clip0_180_1998">
<rect width="24" height="24" fill="white"/>
</clipPath>
</defs>
</svg>
