<svg width="19" height="27" viewBox="0 0 19 27" fill="none" xmlns="http://www.w3.org/2000/svg">
<path d="M4.52117 26.8985C5.58267 27.1063 6.6818 26.9982 7.68249 26.5876C8.68318 26.177 9.54149 25.482 10.1512 24.5885C10.2613 24.4379 10.3271 24.2594 10.3411 24.0733C10.3551 23.8872 10.3168 23.7009 10.2304 23.5355C10.1441 23.3701 10.0132 23.2321 9.85246 23.1372C9.69178 23.0423 9.50774 22.9943 9.32117 22.9985C9.16419 22.9946 9.00873 23.0301 8.86898 23.1017C8.72923 23.1733 8.60966 23.2788 8.52117 23.4085C8.21866 23.8717 7.81039 24.2563 7.33001 24.5306C6.84964 24.805 6.31092 24.9612 5.7583 24.9865C5.20567 25.0117 4.65497 24.9052 4.1516 24.6757C3.64823 24.4463 3.20662 24.1004 2.86318 23.6667C2.51974 23.2331 2.28432 22.7239 2.17633 22.1814C2.06833 21.6388 2.09086 21.0784 2.24206 20.5462C2.39325 20.0141 2.66878 19.5255 3.04592 19.1208C3.42306 18.7161 3.891 18.4068 4.41117 18.2185C4.62001 18.1507 4.80074 18.016 4.92544 17.8353C5.05015 17.6546 5.1119 17.4378 5.10117 17.2185C5.10297 17.0543 5.06431 16.8922 4.98858 16.7464C4.91286 16.6007 4.80241 16.4759 4.66699 16.383C4.53157 16.29 4.37536 16.2319 4.21214 16.2137C4.04893 16.1955 3.88374 16.2177 3.73117 16.2785C2.57706 16.6705 1.58586 17.4348 0.913251 18.4512C0.240645 19.4677 -0.0752591 20.6788 0.0151597 21.8943C0.105578 23.1098 0.597197 24.2609 1.4128 25.1666C2.22839 26.0724 3.32176 26.6816 4.52117 26.8985Z" fill="#383838"/>
<path d="M5.60107 6.49854C5.60107 7.16158 5.86447 7.79746 6.33331 8.2663C6.80215 8.73514 7.43803 8.99854 8.10107 8.99854C8.76412 8.99854 9.4 8.73514 9.86884 8.2663C10.3377 7.79746 10.6011 7.16158 10.6011 6.49854C10.6011 5.83549 10.3377 5.19961 9.86884 4.73077C9.4 4.26193 8.76412 3.99854 8.10107 3.99854C7.43803 3.99854 6.80215 4.26193 6.33331 4.73077C5.86447 5.19961 5.60107 5.83549 5.60107 6.49854Z" fill="#383838"/>
<path d="M6.60107 19.9985C6.60107 20.3964 6.75911 20.7779 7.04041 21.0592C7.32172 21.3405 7.70325 21.4985 8.10107 21.4985H12.6011C12.6847 21.4987 12.767 21.5198 12.8404 21.56C12.9138 21.6002 12.9759 21.6581 13.0211 21.7285L15.3311 25.2885C15.4637 25.5062 15.6503 25.686 15.8728 25.8104C16.0953 25.9348 16.3462 25.9996 16.6011 25.9985C16.8813 26.0015 17.1562 25.9215 17.3911 25.7685C17.5584 25.6653 17.7037 25.53 17.8185 25.3704C17.9333 25.2107 18.0154 25.03 18.06 24.8385C18.1046 24.647 18.1109 24.4486 18.0785 24.2546C18.0461 24.0607 17.9756 23.8751 17.8711 23.7085L15.5711 20.1485C15.2556 19.6383 14.8137 19.2182 14.288 18.9291C13.7624 18.64 13.1709 18.4917 12.5711 18.4985H10.1011C9.96847 18.4985 9.84129 18.4459 9.74752 18.3521C9.65375 18.2583 9.60107 18.1311 9.60107 17.9985V16.7485C9.60107 16.6822 9.62741 16.6186 9.6743 16.5718C9.72118 16.5249 9.78477 16.4985 9.85107 16.4985H13.1011C13.4989 16.4985 13.8804 16.3405 14.1617 16.0592C14.443 15.7779 14.6011 15.3964 14.6011 14.9985C14.6011 14.6007 14.443 14.2192 14.1617 13.9379C13.8804 13.6566 13.4989 13.4985 13.1011 13.4985H9.85107C9.78477 13.4985 9.72118 13.4722 9.6743 13.4253C9.62741 13.3784 9.60107 13.3148 9.60107 13.2485V11.9985C9.60107 11.6007 9.44304 11.2192 9.16173 10.9379C8.88043 10.6566 8.4989 10.4985 8.10107 10.4985C7.70325 10.4985 7.32172 10.6566 7.04041 10.9379C6.75911 11.2192 6.60107 11.6007 6.60107 11.9985V19.9985Z" fill="#383838"/>
<line x1="13.3511" y1="4.29266" x2="13.3511" y2="14.9985" stroke="#383838" stroke-width="0.5"/>
<ellipse cx="13.1011" cy="2.67501" rx="2" ry="2.67647" fill="#C60027"/>
</svg>
