<svg width="24" height="24" viewBox="0 0 24 24" fill="none" xmlns="http://www.w3.org/2000/svg">
<path d="M7.42009 23.4C8.4816 23.6078 9.58073 23.4997 10.5814 23.0891C11.5821 22.6785 12.4404 21.9835 13.0501 21.09C13.1602 20.9394 13.226 20.7609 13.2401 20.5748C13.2541 20.3887 13.2157 20.2024 13.1294 20.037C13.043 19.8716 12.9121 19.7336 12.7514 19.6387C12.5907 19.5438 12.4067 19.4958 12.2201 19.5C12.0631 19.4961 11.9077 19.5316 11.7679 19.6032C11.6282 19.6748 11.5086 19.7803 11.4201 19.91C11.1176 20.3732 10.7093 20.7578 10.2289 21.0321C9.74856 21.3065 9.20985 21.4627 8.65723 21.488C8.1046 21.5132 7.55389 21.4067 7.05053 21.1772C6.54716 20.9478 6.10554 20.6019 5.76211 20.1682C5.41867 19.7346 5.18325 19.2254 5.07525 18.6829C4.96726 18.1403 4.98979 17.5799 5.14098 17.0477C5.29218 16.5156 5.56771 16.027 5.94484 15.6223C6.32198 15.2176 6.78993 14.9083 7.31009 14.72C7.51894 14.6522 7.69966 14.5175 7.82437 14.3368C7.94907 14.1561 8.01082 13.9393 8.00009 13.72C8.0019 13.5558 7.96323 13.3937 7.88751 13.2479C7.81178 13.1022 7.70133 12.9774 7.56592 12.8844C7.4305 12.7915 7.27428 12.7334 7.11107 12.7152C6.94785 12.697 6.78266 12.7192 6.63009 12.78C5.47599 13.172 4.48478 13.9363 3.81218 14.9527C3.13957 15.9692 2.82367 17.1803 2.91409 18.3958C3.0045 19.6113 3.49612 20.7624 4.31172 21.6681C5.12732 22.5739 6.22069 23.1831 7.42009 23.4Z" fill="#383838"/>
<path d="M8.5 3C8.5 3.66304 8.76339 4.29893 9.23223 4.76777C9.70107 5.23661 10.337 5.5 11 5.5C11.663 5.5 12.2989 5.23661 12.7678 4.76777C13.2366 4.29893 13.5 3.66304 13.5 3C13.5 2.33696 13.2366 1.70107 12.7678 1.23223C12.2989 0.763392 11.663 0.5 11 0.5C10.337 0.5 9.70107 0.763392 9.23223 1.23223C8.76339 1.70107 8.5 2.33696 8.5 3Z" fill="#383838"/>
<path d="M9.5 16.5C9.5 16.8978 9.65804 17.2794 9.93934 17.5607C10.2206 17.842 10.6022 18 11 18H15.5C15.5837 18.0001 15.6659 18.0213 15.7393 18.0615C15.8127 18.1016 15.8748 18.1596 15.92 18.23L18.23 21.79C18.3626 22.0077 18.5492 22.1875 18.7717 22.3118C18.9942 22.4362 19.2451 22.501 19.5 22.5C19.7803 22.503 20.0551 22.423 20.29 22.27C20.4574 22.1668 20.6026 22.0315 20.7174 21.8718C20.8322 21.7122 20.9143 21.5314 20.9589 21.3399C21.0036 21.1485 21.0098 20.95 20.9774 20.7561C20.945 20.5622 20.8745 20.3766 20.77 20.21L18.47 16.65C18.1546 16.1397 17.7126 15.7196 17.187 15.4305C16.6613 15.1414 16.0699 14.9931 15.47 15H13C12.8674 15 12.7402 14.9473 12.6464 14.8536C12.5527 14.7598 12.5 14.6326 12.5 14.5V13.25C12.5 13.1837 12.5263 13.1201 12.5732 13.0732C12.6201 13.0263 12.6837 13 12.75 13H16C16.3978 13 16.7794 12.842 17.0607 12.5607C17.342 12.2794 17.5 11.8978 17.5 11.5C17.5 11.1022 17.342 10.7206 17.0607 10.4393C16.7794 10.158 16.3978 10 16 10H12.75C12.6837 10 12.6201 9.97366 12.5732 9.92678C12.5263 9.87989 12.5 9.8163 12.5 9.75V8.5C12.5 8.10218 12.342 7.72064 12.0607 7.43934C11.7794 7.15804 11.3978 7 11 7C10.6022 7 10.2206 7.15804 9.93934 7.43934C9.65804 7.72064 9.5 8.10218 9.5 8.5V16.5Z" fill="#383838"/>
</svg>
