<svg width="24" height="24" viewBox="0 0 24 24" fill="none" xmlns="http://www.w3.org/2000/svg">
<g clip-path="url(#clip0_133_730)">
<path d="M23.7562 15.3832C23.6025 15.2956 23.4148 15.2956 23.2611 15.3832L8.60685 23.0267C8.39931 23.1338 8.29075 23.3707 8.34401 23.6005C8.39951 23.8328 8.60348 23.9974 8.83928 24H23.4935C23.7703 23.9946 23.9935 23.7684 23.9989 23.4878V15.8546C24.011 15.664 23.9174 15.4822 23.7562 15.3832Z" fill="#374151"/>
<path d="M10.5372 18.7746C10.2218 18.3078 9.59287 18.1885 9.13239 18.5083C6.25893 20.5357 2.298 18.6494 2.00282 15.1127C1.87712 13.6075 2.48676 12.1353 3.63454 11.1722C4.2297 10.6635 4.05848 9.69235 3.32629 9.42413C2.98652 9.29969 2.60706 9.36848 2.33086 9.60453C-1.53151 12.9138 -0.411797 19.221 4.34632 20.9574C6.32505 21.6794 8.52509 21.3974 10.2644 20.1988C10.7282 19.8824 10.8505 19.2442 10.5372 18.7746Z" fill="#374151"/>
<path d="M4.17041 2.82177C4.17041 4.99084 6.48646 6.34644 8.33928 5.26196C9.19912 4.75861 9.72888 3.82846 9.72888 2.82177C9.72888 0.652806 7.41282 -0.702796 5.56 0.381686C4.70007 0.885033 4.17041 1.81518 4.17041 2.82177Z" fill="#374151"/>
<path d="M6.16105 7.03288C5.91852 7.14584 5.71966 7.33669 5.59507 7.57585C5.43631 7.83031 5.35223 8.12522 5.35254 8.42624V13.0062C5.35254 14.4944 6.54255 15.7009 8.01051 15.7009H10.1732C10.3331 15.6998 10.485 15.7712 10.5876 15.8956L12.0834 17.7808C12.3832 18.1662 12.8422 18.3894 13.3264 18.3853C14.5479 18.3944 15.3209 17.0596 14.718 15.9827C14.6746 15.9052 14.6249 15.8315 14.5695 15.7623L13.0839 13.8771C12.3768 12.9865 11.311 12.467 10.1833 12.4632H8.53598V9.98366L11.0019 10.5164C11.0926 10.5265 11.1841 10.5265 11.2749 10.5164C12.2929 10.5637 12.9797 9.47586 12.511 8.55844C12.3201 8.1846 11.9672 7.9232 11.5578 7.85245C10.0632 7.33679 8.51812 6.98643 6.94926 6.80738C6.67091 6.80676 6.39807 6.88485 6.16105 7.03288Z" fill="#374151"/>
</g>
<defs>
<clipPath id="clip0_133_730">
<rect width="24" height="24" fill="white"/>
</clipPath>
</defs>
</svg>
