<svg width="28" height="28" viewBox="0 0 28 28" fill="none" xmlns="http://www.w3.org/2000/svg">
<path d="M6.08646 26.04C7.07719 26.2339 8.10305 26.133 9.03702 25.7498C9.971 25.3666 10.7721 24.7179 11.3411 23.884C11.4439 23.7434 11.5053 23.5768 11.5184 23.4032C11.5315 23.2295 11.4957 23.0556 11.4151 22.9012C11.3345 22.7468 11.2123 22.618 11.0623 22.5294C10.9124 22.4409 10.7406 22.396 10.5665 22.4C10.4199 22.3963 10.2748 22.4294 10.1444 22.4963C10.014 22.5631 9.90238 22.6616 9.81979 22.7827C9.53745 23.215 9.15639 23.5739 8.70804 23.83C8.25969 24.0861 7.7569 24.2319 7.24111 24.2554C6.72533 24.279 6.21134 24.1795 5.74153 23.9654C5.27171 23.7512 4.85954 23.4285 4.539 23.0237C4.21846 22.6189 3.99873 22.1437 3.89794 21.6374C3.79714 21.131 3.81817 20.6079 3.95929 20.1112C4.1004 19.6145 4.35756 19.1585 4.70956 18.7808C5.06155 18.4031 5.4983 18.1144 5.98379 17.9387C6.17871 17.8754 6.34739 17.7497 6.46378 17.581C6.58017 17.4123 6.6378 17.21 6.62779 17.0053C6.62947 16.8521 6.59338 16.7007 6.52271 16.5647C6.45203 16.4287 6.34895 16.3122 6.22256 16.2255C6.09617 16.1388 5.95036 16.0845 5.79803 16.0675C5.6457 16.0505 5.49152 16.0713 5.34912 16.128C4.27196 16.4939 3.34683 17.2072 2.71907 18.1559C2.0913 19.1046 1.79646 20.2349 1.88085 21.3694C1.96524 22.5039 2.42408 23.5782 3.18531 24.4236C3.94653 25.269 4.96701 25.8375 6.08646 26.04Z" fill="#374151"/>
<path d="M7.09424 7.00002C7.09424 7.61886 7.34007 8.21235 7.77766 8.64994C8.21524 9.08752 8.80873 9.33335 9.42757 9.33335C10.0464 9.33335 10.6399 9.08752 11.0775 8.64994C11.5151 8.21235 11.7609 7.61886 11.7609 7.00002C11.7609 6.38118 11.5151 5.78769 11.0775 5.3501C10.6399 4.91252 10.0464 4.66669 9.42757 4.66669C8.80873 4.66669 8.21524 4.91252 7.77766 5.3501C7.34007 5.78769 7.09424 6.38118 7.09424 7.00002Z" fill="#374151"/>
<path d="M8.02759 19.6C8.02759 19.9713 8.17509 20.3274 8.43764 20.59C8.70019 20.8525 9.05628 21 9.42759 21H13.6276C13.7057 21.0002 13.7825 21.0199 13.851 21.0574C13.9194 21.0949 13.9774 21.149 14.0196 21.2147L16.1756 24.5374C16.2994 24.7406 16.4735 24.9083 16.6812 25.0244C16.8889 25.1405 17.123 25.201 17.3609 25.2C17.6225 25.2028 17.879 25.1281 18.0983 24.9854C18.2545 24.889 18.39 24.7627 18.4972 24.6137C18.6043 24.4648 18.681 24.296 18.7226 24.1173C18.7642 23.9386 18.7701 23.7534 18.7398 23.5724C18.7096 23.3914 18.6438 23.2182 18.5463 23.0627L16.3996 19.74C16.1052 19.2638 15.6927 18.8717 15.2021 18.6019C14.7115 18.332 14.1595 18.1936 13.5996 18.2H11.2943C11.1705 18.2 11.0518 18.1509 10.9643 18.0634C10.8768 17.9758 10.8276 17.8571 10.8276 17.7334V16.5667C10.8276 16.5048 10.8522 16.4455 10.8959 16.4017C10.9397 16.358 10.999 16.3334 11.0609 16.3334H14.0943C14.4656 16.3334 14.8217 16.1859 15.0842 15.9233C15.3468 15.6608 15.4943 15.3047 15.4943 14.9334C15.4943 14.5621 15.3468 14.206 15.0842 13.9434C14.8217 13.6809 14.4656 13.5334 14.0943 13.5334H11.0609C10.999 13.5334 10.9397 13.5088 10.8959 13.465C10.8522 13.4213 10.8276 13.3619 10.8276 13.3V12.1334C10.8276 11.7621 10.6801 11.406 10.4175 11.1434C10.155 10.8809 9.79889 10.7334 9.42759 10.7334C9.05628 10.7334 8.70019 10.8809 8.43764 11.1434C8.17509 11.406 8.02759 11.7621 8.02759 12.1334V19.6Z" fill="#374151"/>
<path d="M18.0155 6.99246L16.8 0.0898771H18.0533L18.7453 4.72755H18.7861L19.5072 0.0898771H20.7372L21.4699 4.70058H21.5077L22.1881 0.0898771H23.4385L22.2259 6.99246H20.9145L20.1469 2.65138H20.0916L19.324 6.99246H18.0155Z" fill="#374151"/>
<path d="M26.0053 7.12727C25.5478 7.12727 25.1543 6.97748 24.8248 6.67789C24.4972 6.3753 24.2451 5.95587 24.0687 5.4196C23.8943 4.88334 23.807 4.26618 23.807 3.56813C23.807 2.8611 23.8952 2.24094 24.0717 1.70767C24.25 1.1714 24.503 0.753471 24.8306 0.45388C25.1582 0.151293 25.5478 0 25.9995 0C26.3891 0 26.7303 0.109351 27.023 0.328052C27.3158 0.546753 27.5474 0.853834 27.718 1.24929C27.8886 1.64475 27.9826 2.10912 28 2.64239H26.8311C26.7982 2.29786 26.7109 2.02074 26.5694 1.81103C26.4299 1.59832 26.2467 1.49196 26.0199 1.49196C25.8279 1.49196 25.6603 1.57285 25.5168 1.73463C25.3753 1.89342 25.2648 2.1256 25.1853 2.43118C25.1058 2.73676 25.0661 3.10676 25.0661 3.54117C25.0661 3.98157 25.1049 4.35605 25.1824 4.66463C25.2619 4.97321 25.3734 5.20839 25.5168 5.37017C25.6603 5.53195 25.8279 5.61284 26.0199 5.61284C26.1614 5.61284 26.2883 5.5679 26.4008 5.47802C26.5151 5.38815 26.6092 5.25782 26.6828 5.08706C26.7584 4.91329 26.8079 4.70508 26.8311 4.46241H28C27.9807 4.98969 27.8876 5.45406 27.7209 5.85551C27.5561 6.25396 27.3284 6.56554 27.0376 6.79023C26.7468 7.01493 26.4027 7.12727 26.0053 7.12727Z" fill="#374151"/>
</svg>
