<svg width="24" height="24" viewBox="0 0 24 24" fill="none" xmlns="http://www.w3.org/2000/svg">
<g clip-path="url(#clip0_180_1990)">
<path d="M23.57 4.77L22.7 4.11C22.7096 4.03029 22.7096 3.94971 22.7 3.87L21.91 1.3C21.7827 0.974455 21.5598 0.695101 21.2706 0.498742C20.9814 0.302383 20.6395 0.19823 20.29 0.200004H15.63C15.2715 0.205758 14.9232 0.320887 14.6319 0.529981C14.3406 0.739075 14.1201 1.03216 14 1.37L13.25 3.87C13.2403 3.94971 13.2403 4.03029 13.25 4.11L12.38 4.77C12.2558 4.86315 12.155 4.98393 12.0856 5.12279C12.0161 5.26165 11.98 5.41476 11.98 5.57V7.07C11.98 7.33522 12.0853 7.58957 12.2729 7.77711C12.4604 7.96465 12.7148 8.07 12.98 8.07H13.48C13.48 8.9 13.48 9.58 14.98 9.58C16.48 9.58 16.49 8.9 16.49 8.07H19.49C19.49 8.9 19.49 9.58 20.99 9.58C22.49 9.58 22.5 8.9 22.5 8.07H23C23.2652 8.07 23.5196 7.96465 23.7071 7.77711C23.8946 7.58957 24 7.33522 24 7.07V5.57C23.9965 5.41218 23.9558 5.25742 23.881 5.11837C23.8063 4.97932 23.6997 4.85995 23.57 4.77ZM15.4 1.86C15.418 1.81341 15.4495 1.77327 15.4905 1.74476C15.5315 1.71624 15.58 1.70065 15.63 1.7H20.29C20.3303 1.69922 20.3703 1.70785 20.4068 1.72521C20.4432 1.74257 20.4751 1.76818 20.5 1.8L21 3.34H15L15.4 1.86ZM15.4 6.57H14.4C14.2674 6.57 14.1402 6.51733 14.0464 6.42356C13.9527 6.32979 13.9 6.20261 13.9 6.07C13.9 5.9374 13.9527 5.81022 14.0464 5.71645C14.1402 5.62268 14.2674 5.57 14.4 5.57H15.4C15.5326 5.57 15.6598 5.62268 15.7535 5.71645C15.8473 5.81022 15.9 5.9374 15.9 6.07C15.9 6.20261 15.8473 6.32979 15.7535 6.42356C15.6598 6.51733 15.5326 6.57 15.4 6.57ZM21.4 6.57H20.4C20.2674 6.57 20.1402 6.51733 20.0464 6.42356C19.9527 6.32979 19.9 6.20261 19.9 6.07C19.9 5.9374 19.9527 5.81022 20.0464 5.71645C20.1402 5.62268 20.2674 5.57 20.4 5.57H21.4C21.5326 5.57 21.6598 5.62268 21.7535 5.71645C21.8473 5.81022 21.9 5.9374 21.9 6.07C21.9 6.20261 21.8473 6.32979 21.7535 6.42356C21.6598 6.51733 21.5326 6.57 21.4 6.57Z" fill="#374151"/>
<path d="M9.15009 21.27C8.19717 21.9332 7.0248 22.2025 5.878 22.0215C4.7312 21.8405 3.69873 21.2233 2.99636 20.2989C2.29399 19.3744 1.9761 18.2143 2.1091 17.061C2.24211 15.9076 2.81574 14.8503 3.71009 14.11C3.81055 14.0253 3.89334 13.9217 3.95374 13.805C4.01414 13.6883 4.05096 13.5608 4.06211 13.4299C4.07325 13.2989 4.0585 13.1671 4.01869 13.0419C3.97888 12.9166 3.91479 12.8005 3.83009 12.7C3.74538 12.5996 3.64172 12.5168 3.52502 12.4564C3.40832 12.396 3.28087 12.3591 3.14994 12.348C3.01901 12.3369 2.88717 12.3516 2.76194 12.3914C2.63671 12.4312 2.52055 12.4953 2.42009 12.58C1.14834 13.6548 0.337559 15.1766 0.154949 16.8317C-0.0276604 18.4867 0.431833 20.1487 1.43866 21.4749C2.44549 22.8011 3.92287 23.6903 5.56609 23.9592C7.20932 24.2281 8.89307 23.8561 10.2701 22.92C10.3896 22.8515 10.4937 22.7591 10.5758 22.6486C10.6579 22.538 10.7163 22.4117 10.7473 22.2775C10.7783 22.1433 10.7813 22.0041 10.756 21.8688C10.7307 21.7334 10.6777 21.6047 10.6004 21.4907C10.523 21.3768 10.423 21.28 10.3065 21.2065C10.19 21.1331 10.0596 21.0844 9.92341 21.0637C9.78725 21.043 9.64828 21.0506 9.51521 21.0861C9.38214 21.1216 9.25783 21.1842 9.15009 21.27Z" fill="#374151"/>
<path d="M4.23999 5.97C4.23999 6.69935 4.52972 7.39882 5.04545 7.91455C5.56117 8.43027 6.26064 8.72 6.98999 8.72C7.71934 8.72 8.41881 8.43027 8.93453 7.91455C9.45026 7.39882 9.73999 6.69935 9.73999 5.97C9.73999 5.24066 9.45026 4.54118 8.93453 4.02546C8.41881 3.50973 7.71934 3.22 6.98999 3.22C6.26064 3.22 5.56117 3.50973 5.04545 4.02546C4.52972 4.54118 4.23999 5.24066 4.23999 5.97Z" fill="#374151"/>
<path d="M13.0602 16.75C12.7147 16.3208 12.2778 15.9742 11.7812 15.7354C11.2847 15.4967 10.7411 15.3718 10.1902 15.37H8.56017V13L11.0002 13.52H11.2702C11.6033 13.5352 11.9297 13.4229 12.1828 13.2058C12.436 12.9887 12.5968 12.6832 12.6325 12.3516C12.6682 12.0201 12.5761 11.6874 12.375 11.4214C12.1739 11.1554 11.8789 10.9761 11.5502 10.92C10.0765 10.4004 8.55096 10.0417 7.00017 9.85001C6.72476 9.84934 6.45463 9.92553 6.22017 10.07C5.98028 10.1803 5.78345 10.3666 5.66017 10.6C5.50312 10.8483 5.41988 11.1362 5.42017 11.43V15.9C5.42004 16.589 5.69026 17.2504 6.17271 17.7422C6.65517 18.2341 7.31135 18.5169 8.00017 18.53H10.1402C10.2183 18.5295 10.2956 18.5463 10.3664 18.5791C10.4373 18.612 10.5001 18.6601 10.5502 18.72L12.0202 20.56C12.2854 20.8876 12.6699 21.0963 13.089 21.1404C13.5081 21.1845 13.9276 21.0602 14.2552 20.795C14.5827 20.5298 14.7915 20.1453 14.8356 19.7262C14.8796 19.307 14.7554 18.8876 14.4902 18.56L13.0602 16.75Z" fill="#374151"/>
</g>
<defs>
<clipPath id="clip0_180_1990">
<rect width="24" height="24" fill="white"/>
</clipPath>
</defs>
</svg>
